# xmcd
#
# Track frame offsets:
# 197
# 13872
# 28282
# 40707
# 53207
# 73135
# 87457
# 99335
# 102877
# 118960
# 139652
# 159425
# 171627
# 188930
# 206777
# 227265
# 238137
# 257232
#
# Disc length: 3727 seconds
#
#
# Revision: 0
# Processed by: cddbd v1.4PL0 Copyright (c) Steve Scherf et al.
# Submitted via: FreeRIP 2.30 
#
DISCID=060e8d12
DTITLE=Y Tebot Piws - Y Gore a'r Gweaetha o'r Tebot Piws
DYEAR=1970
DGENRE=Avantgarde
TTITLE0=Yr Hogy Pren
TTITLE1=Dan Ddwr Oer y Llyn
TTITLE2=Llanfihangel
TTITLE3=Marwnad Llon Wili John
TTITLE4=Blaenau Ffestiniog
TTITLE5=Lleucu Llwyd
TTITLE6=Tyrd i Ffwrdd
TTITLE7=O Arglwydd Mae'n Uffern yn y Pwll
TTITLE8=Godro'r Fuwch
TTITLE9=Mae Rhywun Wedi Dwyn Fy'n Nrhwyn
TTITLE10=Nwy yn y Nen
TTITLE11=Helo Dymbo
TTITLE12=Ie,ie, 'na fe
TTITLE13=D'yn ni ddim yn m,ynd i Birmingham
TTITLE14=Dilyn Colomen
TTITLE15=Mae Gen i Gariad
TTITLE16=I ble'r Wyt Ti'n Myned
TTITLE17=Diferion o Waelod y Tebot
EXTD=
EXTT0=
EXTT1=
EXTT2=
EXTT3=
EXTT4=
EXTT5=
EXTT6=
EXTT7=
EXTT8=
EXTT9=Somebody has stolen my nose
EXTT10=
EXTT11=
EXTT12=
EXTT13=
EXTT14=
EXTT15=
EXTT16=
EXTT17=
PLAYORDER=
